<svg xmlns="http://www.w3.org/2000/svg" viewBox="0 0 512 512">
  <defs>
    <radialGradient id="bg" cx="50%" cy="35%" r="75%">
      <stop offset="0%" stop-color="#2b0d0d"/>
      <stop offset="55%" stop-color="#160708"/>
      <stop offset="100%" stop-color="#060304"/>
    </radialGradient>
    <linearGradient id="ring" x1="0" x2="1">
      <stop offset="0%" stop-color="#ff5a4e"/>
      <stop offset="45%" stop-color="#d61e1e"/>
      <stop offset="100%" stop-color="#7e0000"/>
    </linearGradient>
    <linearGradient id="dragon" x1="0" y1="0" x2="1" y2="1">
      <stop offset="0%" stop-color="#ff7a66"/>
      <stop offset="40%" stop-color="#ff2f1a"/>
      <stop offset="100%" stop-color="#8f0303"/>
    </linearGradient>
  </defs>
  <circle cx="256" cy="256" r="244" fill="url(#bg)" />
  <circle cx="256" cy="256" r="235" fill="none" stroke="url(#ring)" stroke-width="18" />
  <g transform="translate(20 18)">
    <path d="M337 64
             C301 82 284 111 286 137
             C287 163 309 181 325 196
             C354 223 371 252 365 289
             C358 335 324 371 261 400
             C299 392 333 378 358 357
             C395 326 415 283 410 239
             C404 188 367 160 339 137
             C326 126 318 113 321 99
             C325 84 337 73 355 66
             C368 61 382 59 394 61
             C378 50 357 53 337 64z"
          fill="url(#dragon)"/>
    <path d="M320 74
             C304 66 286 63 269 67
             C245 73 224 89 211 113
             C197 139 196 168 205 191
             C216 219 239 238 263 251
             C205 260 155 285 124 326
             C104 353 93 383 90 414
             C101 390 119 368 143 350
             C179 322 225 307 275 303
             C318 299 352 282 370 253
             C386 228 389 197 380 169
             C372 143 354 122 335 106
             C348 102 361 94 372 83
             C385 70 394 54 398 39
             C381 51 359 62 334 67
             L320 74z"
          fill="url(#dragon)"/>
    <path d="M252 126
             C235 134 220 149 212 169
             C204 190 207 212 219 229
             C233 249 255 259 281 258
             C307 258 329 246 340 226
             C326 237 308 243 289 241
             C270 239 255 230 246 216
             C236 201 235 183 243 166
             C251 149 266 136 286 130
             C302 126 319 128 334 135
             C321 121 302 115 282 117
             C272 118 261 121 252 126z"
          fill="#120406"/>
    <path d="M333 152
             C342 148 353 150 359 157
             C366 166 366 178 360 186
             C354 195 342 198 333 193
             C324 188 320 177 323 168
             C325 161 328 156 333 152z"
          fill="#ffd54f"/>
    <path d="M326 92 L360 38 L381 76 L426 70 L392 101 L402 144 L364 125 L337 157 L338 112 Z"
          fill="#ff2f1a"/>
    <path d="M183 357
             C161 372 143 394 133 421
             C127 438 126 454 128 470
             C140 448 157 430 181 418
             C204 406 230 401 255 398
             C224 390 198 378 183 357z"
          fill="#ff2f1a"/>
  </g>
</svg>