<svg xmlns="http://www.w3.org/2000/svg" width="88" height="88" viewBox="0 0 88 88" fill="none">
  <defs>
    <linearGradient id="g1" x1="10" y1="10" x2="78" y2="78" gradientUnits="userSpaceOnUse">
      <stop stop-color="#2D8CFF"/>
      <stop offset="1" stop-color="#18C28E"/>
    </linearGradient>
    <linearGradient id="g2" x1="12" y1="12" x2="76" y2="76" gradientUnits="userSpaceOnUse">
      <stop stop-color="#F8FBFF"/>
      <stop offset="1" stop-color="#E7F4FF"/>
    </linearGradient>
    <filter id="shadow" x="0" y="0" width="88" height="88" filterUnits="userSpaceOnUse" color-interpolation-filters="sRGB">
      <feDropShadow dx="0" dy="8" stdDeviation="8" flood-color="#193A5A" flood-opacity="0.18"/>
    </filter>
  </defs>
  <rect x="8" y="8" width="72" height="72" rx="22" fill="url(#g2)"/>
  <rect x="12" y="12" width="64" height="64" rx="20" fill="white" filter="url(#shadow)"/>
  <rect x="16" y="16" width="56" height="56" rx="18" fill="url(#g1)" opacity="0.12"/>
  
  <rect x="24" y="28" width="40" height="26" rx="9" fill="url(#g1)"/>
  <path d="M42 35.5L51.5 41L42 46.5V35.5Z" fill="white"/>
  <path d="M27 58C31 53.5 36 51 44 51C52 51 57 53.5 61 58" stroke="#163A5F" stroke-width="3.2" stroke-linecap="round" opacity="0.75"/>
  <circle cx="24" cy="24" r="4" fill="#FFC74D"/>
  <path d="M59 22C62.5 24 65 27 66 31" stroke="#18C28E" stroke-width="3" stroke-linecap="round"/>

</svg>