<svg xmlns="http://www.w3.org/2000/svg" width="88" height="88" viewBox="0 0 88 88" fill="none">
  <defs>
    <linearGradient id="g1" x1="10" y1="10" x2="78" y2="78" gradientUnits="userSpaceOnUse">
      <stop stop-color="#2D8CFF"/>
      <stop offset="1" stop-color="#18C28E"/>
    </linearGradient>
    <linearGradient id="g2" x1="12" y1="12" x2="76" y2="76" gradientUnits="userSpaceOnUse">
      <stop stop-color="#F8FBFF"/>
      <stop offset="1" stop-color="#E7F4FF"/>
    </linearGradient>
    <filter id="shadow" x="0" y="0" width="88" height="88" filterUnits="userSpaceOnUse" color-interpolation-filters="sRGB">
      <feDropShadow dx="0" dy="8" stdDeviation="8" flood-color="#193A5A" flood-opacity="0.18"/>
    </filter>
  </defs>
  <rect x="8" y="8" width="72" height="72" rx="22" fill="url(#g2)"/>
  <rect x="12" y="12" width="64" height="64" rx="20" fill="white" filter="url(#shadow)"/>
  <rect x="16" y="16" width="56" height="56" rx="18" fill="url(#g1)" opacity="0.12"/>
  
  <rect x="18" y="30" width="52" height="30" rx="10" fill="url(#g1)"/>
  <rect x="18" y="37" width="52" height="7" fill="white" opacity="0.22"/>
  <circle cx="31" cy="45" r="4" fill="#FFC74D"/>
  <path d="M49 23C54.5 23 59 27.5 59 33C59 38.5 54.5 43 49 43C43.5 43 39 38.5 39 33C39 27.5 43.5 23 49 23Z" fill="white"/>
  <path d="M47 28V38M44 31.5H50.5M44 35H50" stroke="#163A5F" stroke-width="2.8" stroke-linecap="round"/>

</svg>