<svg xmlns="http://www.w3.org/2000/svg" width="88" height="88" viewBox="0 0 88 88" fill="none">
  <defs>
    <linearGradient id="g1" x1="10" y1="10" x2="78" y2="78" gradientUnits="userSpaceOnUse">
      <stop stop-color="#2D8CFF"/>
      <stop offset="1" stop-color="#18C28E"/>
    </linearGradient>
    <linearGradient id="g2" x1="12" y1="12" x2="76" y2="76" gradientUnits="userSpaceOnUse">
      <stop stop-color="#F8FBFF"/>
      <stop offset="1" stop-color="#E7F4FF"/>
    </linearGradient>
    <filter id="shadow" x="0" y="0" width="88" height="88" filterUnits="userSpaceOnUse" color-interpolation-filters="sRGB">
      <feDropShadow dx="0" dy="8" stdDeviation="8" flood-color="#193A5A" flood-opacity="0.18"/>
    </filter>
  </defs>
  <rect x="8" y="8" width="72" height="72" rx="22" fill="url(#g2)"/>
  <rect x="12" y="12" width="64" height="64" rx="20" fill="white" filter="url(#shadow)"/>
  <rect x="16" y="16" width="56" height="56" rx="18" fill="url(#g1)" opacity="0.12"/>
  
  <path d="M30 22H58" stroke="#163A5F" stroke-width="3.2" stroke-linecap="round"/>
  <path d="M34 25H54V32C54 37 50 40 44 44C38 40 34 37 34 32V25Z" fill="url(#g1)"/>
  <path d="M34 63H54" stroke="#163A5F" stroke-width="3.2" stroke-linecap="round"/>
  <path d="M34 60H54V53C54 48 50 45 44 41C38 45 34 48 34 53V60Z" fill="#CFEFFF"/>
  <path d="M61 26L65 22M63 34H69" stroke="#FFC74D" stroke-width="3" stroke-linecap="round"/>

</svg>