<svg xmlns="http://www.w3.org/2000/svg" width="88" height="88" viewBox="0 0 88 88" fill="none">
  <defs>
    <linearGradient id="g1" x1="10" y1="10" x2="78" y2="78" gradientUnits="userSpaceOnUse">
      <stop stop-color="#2D8CFF"/>
      <stop offset="1" stop-color="#18C28E"/>
    </linearGradient>
    <linearGradient id="g2" x1="12" y1="12" x2="76" y2="76" gradientUnits="userSpaceOnUse">
      <stop stop-color="#F8FBFF"/>
      <stop offset="1" stop-color="#E7F4FF"/>
    </linearGradient>
    <filter id="shadow" x="0" y="0" width="88" height="88" filterUnits="userSpaceOnUse" color-interpolation-filters="sRGB">
      <feDropShadow dx="0" dy="8" stdDeviation="8" flood-color="#193A5A" flood-opacity="0.18"/>
    </filter>
  </defs>
  <rect x="8" y="8" width="72" height="72" rx="22" fill="url(#g2)"/>
  <rect x="12" y="12" width="64" height="64" rx="20" fill="white" filter="url(#shadow)"/>
  <rect x="16" y="16" width="56" height="56" rx="18" fill="url(#g1)" opacity="0.12"/>
  
  <rect x="18" y="33" width="24" height="18" rx="5" fill="#D7EBFF"/>
  <rect x="46" y="22" width="22" height="38" rx="7" fill="url(#g1)"/>
  <rect x="49" y="27" width="16" height="24" rx="4" fill="white" opacity="0.95"/>
  <rect x="28" y="25" width="18" height="30" rx="6" fill="#163A5F" opacity="0.86"/>
  <circle cx="37" cy="55" r="1.8" fill="white"/>
  <path d="M21 60C27 55.5 34.5 53 44 53C53.5 53 61 55.5 67 60" stroke="#18C28E" stroke-width="3" stroke-linecap="round"/>

</svg>